<?xml version="1.0" ?><svg id="Layer_1" style="enable-background:new 0 0 64 64;" version="1.1" viewBox="0 0 64 64" xml:space="preserve" xmlns="http://www.w3.org/2000/svg" xmlns:xlink="http://www.w3.org/1999/xlink"><style type="text/css">
	.st0{fill:#D3A6FF;}
	.st1{fill:#FF768F;}
	.st2{fill:#57CEF3;}
	.st3{fill-rule:evenodd;clip-rule:evenodd;fill:#9C35FF;}
	.st4{fill:#DD2A7B;}
	.st5{fill:#FEDA77;}
	.st6{fill:#F58529;}
	.st7{fill:#393E46;}
	.st8{fill-rule:evenodd;clip-rule:evenodd;fill:#FFFFFF;}
	.st9{fill:#ACBDC5;}
</style><g id="Instagram"><path class="st0" d="M2,21.2c0-6.7,0-10.1,1.3-12.6c1.2-2.3,3-4.1,5.2-5.2C11.1,2,14.5,2,21.2,2h21.6c6.7,0,10.1,0,12.6,1.3   c2.3,1.2,4.1,3,5.2,5.2C62,11.1,62,14.5,62,21.2v3.6c0,6.7,0,10.1-1.3,12.6c-1.2,2.3-3,4.1-5.2,5.2C52.9,44,49.5,44,42.8,44H21.2   c-6.7,0-10.1,0-12.6-1.3c-2.3-1.2-4.1-3-5.2-5.2C2,34.9,2,31.5,2,24.8V21.2z"/><path class="st1" d="M62,23.6v19.2c0,6.7,0,10.1-1.3,12.6c-1.2,2.3-3,4.1-5.2,5.2C52.9,62,49.5,62,42.8,62H21.2   c-6.7,0-10.1,0-12.6-1.3c-2.3-1.2-4.1-3-5.2-5.2C2,52.9,2,49.5,2,42.8v-9C12.7,25.2,26.2,20,41,20C48.4,20,55.4,21.3,62,23.6z"/><path class="st2" d="M41.2,2C33.9,8.2,24.4,12,14,12c-3.9,0-7.8-0.5-11.4-1.6C2.8,9.7,3,9.1,3.3,8.6c1.2-2.3,3-4.1,5.2-5.2   C11.1,2,14.5,2,21.2,2H41.2z"/><path class="st3" d="M4.2,13.5C4,15.4,4,17.8,4,21.2v21.6H0V21.1c0-3.3,0-5.9,0.2-8C0.3,11,0.7,9.3,1.5,7.6l3.6,1.8   C4.6,10.4,4.3,11.6,4.2,13.5z"/><path class="st4" d="M60,24c0,15.5-16.1,28-36,28l0,0c-11,0-20-5.4-20-12v-7.8c-1.4,1-2.7,2.1-4,3.2v7.3h2c0,6.7,0,10.1,1.3,12.6   c1.2,2.3,3,4.1,5.2,5.2C11.1,62,14.5,62,21.2,62h21.6c6.7,0,10.1,0,12.6-1.3c2.3-1.2,4.1-3,5.2-5.2C62,52.9,62,49.5,62,42.8V23.6   c-0.7-0.2-1.3-0.5-2-0.7C60,23.3,60,23.7,60,24z"/><path class="st5" d="M42.8,62c6.1,0,9.4,0,11.9-1C47.6,46.2,32.5,36,15,36c-4.5,0-8.9,0.7-13,2v4.8c0,6.7,0,10.1,1.3,12.6l-1.4,1.6   c1.3,2.3,3.3,4.2,5.7,5.4c1.6,0.8,3.4,1.2,5.5,1.4c2.1,0.2,4.7,0.2,8,0.2h21.7V62z"/><path class="st6" d="M55.5,62.8c-1.4,0.6-2.9,0.8-4.7,1c-2.1,0.2-4.7,0.2-8,0.2H41c-5.1-7.3-13.5-12-23-12c-6,0-11.5,1.9-16.1,5.1   c-0.1-0.2-0.3-0.5-0.4-0.7c-0.8-1.6-1.2-3.4-1.4-5.5C0,48.8,0,46.2,0,42.9v-4.3c1.3-0.5,2.6-0.9,4-1.2V40c0,6.6,9,12,20,12   c7.5,0,14.5-1.8,20.3-4.9c3.8,3.4,7.1,7.5,9.5,12.1c0.3,0.6,0.6,1.2,0.9,1.8l0,0C55,61.6,55.3,62.2,55.5,62.8z"/><path class="st7" d="M0.7,9.8c0.2-0.8,0.5-1.5,0.8-2.2C2.9,5,5,2.9,7.6,1.5c1.6-0.8,3.4-1.2,5.5-1.4C15.2,0,17.8,0,21.1,0h21.8   c3.3,0,5.9,0,8,0.2c2.1,0.2,3.9,0.5,5.5,1.4C59,2.9,61.1,5,62.5,7.6c0.8,1.6,1.2,3.4,1.4,5.5c0.2,2.1,0.2,4.7,0.2,8v21.8   c0,3.3,0,5.9-0.2,8c-0.2,2.1-0.5,3.9-1.4,5.5c-1.3,2.6-3.5,4.8-6.1,6.1c-0.3,0.1-0.5,0.3-0.8,0.4c-0.5-1.2-1.1-2.4-1.7-3.6   c0.3-0.1,0.5-0.2,0.7-0.3c1.9-1,3.4-2.5,4.4-4.4c0.5-1,0.8-2.1,0.9-4c0.2-1.9,0.2-4.3,0.2-7.7V21.2c0-3.4,0-5.8-0.2-7.7   c-0.2-1.9-0.4-3.1-0.9-4c-1-1.9-2.5-3.4-4.4-4.4c-1-0.5-2.1-0.8-4-0.9C48.6,4,46.2,4,42.8,4H21.2c-3.4,0-5.8,0-7.7,0.2   c-1.9,0.2-3.1,0.4-4,0.9C7.6,6,6,7.6,5.1,9.5c-0.2,0.4-0.4,0.9-0.5,1.5C3.2,10.6,2,10.3,0.7,9.8z"/><path class="st8" d="M20,32c0-6.6,5.4-12,12-12c6.6,0,12,5.4,12,12c0,6.6-5.4,12-12,12C25.4,44,20,38.6,20,32z M32,24   c-4.4,0-8,3.6-8,8c0,4.4,3.6,8,8,8c4.4,0,8-3.6,8-8C40,27.6,36.4,24,32,24z M45,22c1.7,0,3-1.3,3-3c0-1.7-1.3-3-3-3   c-1.7,0-3,1.3-3,3C42,20.7,43.3,22,45,22z M21.2,8.2c-2.1,0.2-3.9,0.5-5.5,1.4c-2.6,1.3-4.8,3.5-6.1,6.1c-0.8,1.6-1.2,3.4-1.4,5.5   C8,23.2,8,25.8,8,29.1v5.8c0,3.3,0,5.9,0.2,8c0.2,2.1,0.5,3.9,1.4,5.5c1.3,2.6,3.5,4.8,6.1,6.1c1.6,0.8,3.4,1.2,5.5,1.4   c2.1,0.2,4.7,0.2,8,0.2h0.1v-4c-3.4,0-5.8,0-7.7-0.2c-1.9-0.2-3.1-0.4-4-0.9c-1.9-1-3.4-2.5-4.4-4.4c-0.5-1-0.8-2.1-0.9-4   C12,40.6,12,38.2,12,34.8v-5.6c0-3.4,0-5.8,0.2-7.7c0.2-1.9,0.4-3.1,0.9-4c1-1.9,2.5-3.4,4.4-4.4c1-0.5,2.1-0.8,4-0.9   c1.9-0.2,4.3-0.2,7.7-0.2h5.6c3.4,0,5.8,0,7.7,0.2c1.9,0.2,3.1,0.4,4,0.9c1.9,1,3.4,2.5,4.4,4.4c0.5,1,0.8,2.1,0.9,4   c0.2,1.9,0.2,4.3,0.2,7.7v5.6c0,3.3,0,5.7-0.1,7.5l4,0.3c0.2-2,0.2-4.6,0.2-7.8v-5.8c0-3.3,0-5.9-0.2-8c-0.2-2.1-0.5-3.9-1.4-5.5   c-1.3-2.6-3.5-4.8-6.1-6.1c-1.6-0.8-3.4-1.2-5.5-1.4C40.8,8,38.2,8,34.9,8h-5.8C25.8,8,23.2,8,21.2,8.2z"/><path class="st9" d="M24,52c-5.7,0-10.8-1.4-14.4-3.7l-0.1,0c1.3,2.6,3.5,4.8,6.1,6.1c1.6,0.8,3.4,1.2,5.5,1.4   c2.1,0.2,4.7,0.2,8,0.2h5.8c3.3,0,5.9,0,8-0.2c2.1-0.2,3.9-0.5,5.5-1.4c2.6-1.3,4.8-3.5,6.1-6.1c0.8-1.6,1.2-3.4,1.4-5.5   c0.1-1.7,0.2-3.6,0.2-6c-1.2,1.7-2.5,3.4-4.1,4.9c0,0.3,0,0.6-0.1,0.8c-0.2,1.9-0.4,3.1-0.9,4c-1,1.9-2.5,3.4-4.4,4.4   c-1,0.5-2.1,0.8-4,0.9C40.6,52,38.2,52,34.8,52h-5.6c-1.5,0-2.9,0-4,0C24.8,52,24.4,52,24,52C24,52,24,52,24,52z"/></g></svg>